<?xml version="1.0" encoding="UTF-8"?>
<!DOCTYPE svg PUBLIC "-//W3C//DTD SVG 1.1//EN" "http://www.w3.org/Graphics/SVG/1.1/DTD/svg11.dtd">
<!-- Creator: CorelDRAW 2019 (64-Bit) -->
<svg xmlns="http://www.w3.org/2000/svg" xml:space="preserve" width="40px" height="34px" version="1.1" style="shape-rendering:geometricPrecision; text-rendering:geometricPrecision; image-rendering:optimizeQuality; fill-rule:evenodd; clip-rule:evenodd"
viewBox="0 0 40 34"
 xmlns:xlink="http://www.w3.org/1999/xlink">
 <defs>
  <style type="text/css">
   <![CDATA[
    .fil0 {fill:#FEFEFE}
   ]]>
  </style>
 </defs>
 <g id="Слой_x0020_1">
  <metadata id="CorelCorpID_0Corel-Layer"/>
  <g id="Page-1">
   <g id="Artboard-Copy">
    <path id="basket" class="fil0" d="M1.43 11.33c-1.57,0 -1.43,-0.12 -1.43,1.21l0 19.03c0,1.34 1.29,2.43 2.86,2.43l34.28 0c1.58,0 2.86,-1.09 2.86,-2.43l0 -19.43c0,-1.34 0.15,-0.81 -1.43,-0.81l-5.24 0 0 -8.9c0,-1.34 -1.28,-2.43 -2.85,-2.43l-20.95 0c-1.58,0 -2.86,1.09 -2.86,2.43l0 8.9 -5.24 0zm27.9 0l-18.66 0 0 -6.31c0,-0.67 0.64,-1.62 1.43,-1.62l15.8 0c0.79,0 1.43,0.78 1.43,1.45l0 6.48z"/>
    <g id="slices">
    </g>
   </g>
  </g>
 </g>
</svg>
